<?xml version="1.0" encoding="UTF-8"?>
<!DOCTYPE svg PUBLIC "-//W3C//DTD SVG 1.0//EN" "http://www.w3.org/TR/2001/REC-SVG-20010904/DTD/svg10.dtd">
<!-- Creator: CorelDRAW 2018 (64 Bit Versión de evaluación) -->
<svg xmlns="http://www.w3.org/2000/svg" xml:space="preserve" width="450px" height="350px" version="1.0" style="shape-rendering:geometricPrecision; text-rendering:geometricPrecision; image-rendering:optimizeQuality; fill-rule:evenodd; clip-rule:evenodd"
viewBox="0 0 450 350"
 xmlns:xlink="http://www.w3.org/1999/xlink">
 <defs>
  <style type="text/css">
   <![CDATA[
    .fil1 {fill:#009BCA}
    .fil2 {fill:#3482AC}
    .fil0 {fill:#4BB8EB}
    .fil9 {fill:#4BB9EC}
    .fil3 {fill:#5B546A}
    .fil6 {fill:#5C546A}
    .fil5 {fill:#868491}
    .fil4 {fill:#B3B5BB}
    .fil8 {fill:#B4B6BC}
    .fil7 {fill:white}
   ]]>
  </style>
 </defs>
 <g id="Capa_x0020_1">
  <metadata id="CorelCorpID_0Corel-Layer"/>
  <g id="_2791175406800">
   <g>
    <path class="fil0" d="M187.205 209.409c-0.775,-5.097 3.438,-6.821 7.129,-6.483l2.106 -13.994 -32.82 -15.04 -9.391 10.506c1.471,1.894 2.424,2.448 2.32,4.834 -0.094,2.176 -1.428,4.165 -3.088,5.087 -3.268,1.814 -8.717,-1.592 -12.912,-3.515 -4.617,-2.117 -9.535,-3.416 -9.36,-8.161 0.186,-5.07 4.157,-5.913 8.405,-5.093l48.668 -53.919c-1.774,-1.72 -3.062,-3.418 -2.156,-6.294 2.743,-8.693 14.129,-0.729 21.797,2.789 7.604,3.489 21.858,7.336 16.129,15.118 -1.77,2.404 -3.349,2.106 -6.02,2.229l-8.997 71.828c2.637,2.411 5.985,6.139 1.278,10.068 -3.38,2.821 -7.656,-0.077 -12.48,-2.291 -4.543,-2.085 -9.988,-3.589 -10.608,-7.669zm109.561 -135.3l8.68 3.983c7.072,3.604 11.338,7.866 6.676,17.875 -5.142,11.039 -10.168,22.154 -15.247,33.224 -25.303,55.146 -51.272,110.915 -76.214,166.114 -1.655,3.661 -2.083,4.634 -4.524,6.382 -3.661,2.62 -7.222,2.543 -10.94,1.336l-143.974 -66.06 3.221 -7.019c5.107,1.181 5.931,-3.741 8.082,-8.431l87.046 -189.715c2.153,-4.691 5.346,-8.525 1.12,-11.626l3.221 -7.02c44.279,20.317 88.559,40.633 132.838,60.95l0.015 0.007z"/>
    <path class="fil1" d="M129.758 22.878c3.849,1.767 10.958,3.689 8.845,8.294 -2.112,4.605 -8.207,0.47 -12.056,-1.296l-4.812 10.488c3.85,1.766 10.959,3.689 8.846,8.294 -2.112,4.604 -8.207,0.469 -12.057,-1.297l-4.812 10.488c3.85,1.767 10.959,3.689 8.846,8.294 -2.113,4.605 -8.207,0.47 -12.056,-1.296l-4.813 10.487c3.851,1.767 10.96,3.689 8.847,8.295 -2.113,4.604 -8.207,0.469 -12.057,-1.297l-4.812 10.488c3.85,1.766 10.959,3.689 8.846,8.294 -2.113,4.604 -8.207,0.47 -12.056,-1.297l-4.813 10.488c3.85,1.767 10.958,3.693 8.846,8.294 -2.11,4.6 -8.206,0.47 -12.057,-1.297l-4.811 10.488c3.849,1.766 10.958,3.689 8.846,8.294 -2.113,4.604 -8.207,0.47 -12.057,-1.296l-4.812 10.487c3.85,1.767 10.959,3.689 8.846,8.294 -2.113,4.604 -8.207,0.47 -12.057,-1.296l-4.812 10.487c3.85,1.767 10.959,3.689 8.846,8.294 -2.112,4.605 -8.207,0.47 -12.056,-1.296l-4.812 10.488c3.85,1.766 10.959,3.689 8.846,8.294 -2.113,4.604 -8.207,0.469 -12.057,-1.297l-4.812 10.488c3.85,1.766 10.959,3.689 8.846,8.294 -2.112,4.604 -8.207,0.47 -12.057,-1.297 -3.204,6.985 -8.327,14.32 -4.718,20.611 1.793,3.126 2.977,3.964 6.904,5.789l1.588 0.729c3.355,1.531 6.706,3.076 10.059,4.615l0.178 0.082 0.179 0.082 0.178 0.082 0.178 0.082 0.178 0.082 0.179 0.081 0 0 3.221 -7.019c-2.161,-1.567 -2.808,-2.383 -1.866,-5.104 0.68,-1.964 2.06,-4.569 2.961,-6.533l87.046 -189.715c3.108,-6.775 3.198,-9.584 8.107,-8.42l3.221 -7.02 -0.056 -0.026 -13.559 -6.22c-2.871,-1.004 -5.572,-1.51 -7.993,-1.046 -7.124,1.367 -9.343,10.034 -12.547,17.018z"/>
    <path class="fil2" d="M203.028 130.748c0.545,1.717 -4.107,37.506 -4.993,42.003l-23.479 -10.929 28.472 -31.074zm-14.766 -7.117l-48.668 53.919c-4.248,-0.82 -8.219,0.023 -8.405,5.093 -0.175,4.745 4.743,6.044 9.36,8.161 4.195,1.923 9.644,5.329 12.912,3.515 1.66,-0.922 2.994,-2.911 3.088,-5.087 0.104,-2.386 -0.849,-2.94 -2.32,-4.834l9.391 -10.506 32.82 15.04 -2.106 13.994c-3.691,-0.338 -7.904,1.386 -7.129,6.483 0.62,4.08 6.065,5.584 10.608,7.669 4.824,2.214 9.1,5.112 12.48,2.291 4.707,-3.929 1.359,-7.657 -1.278,-10.068l8.997 -71.828c2.671,-0.123 4.25,0.175 6.02,-2.229 5.729,-7.782 -8.525,-11.629 -16.129,-15.118 -7.668,-3.518 -19.054,-11.482 -21.797,-2.789 -0.906,2.876 0.382,4.574 2.156,6.294z"/>
    <path class="fil2" d="M64.444 229.944c5.107,1.181 5.931,-3.741 8.082,-8.431l87.046 -189.715c2.153,-4.691 5.346,-8.525 1.12,-11.626 -4.909,-1.164 -4.999,1.645 -8.107,8.42l-87.046 189.715c-0.901,1.964 -2.281,4.569 -2.961,6.533 -0.942,2.721 -0.295,3.537 1.866,5.104z"/>
    <path class="fil0" d="M174.556 161.822l23.479 10.929c0.886,-4.497 5.538,-40.286 4.993,-42.003l-28.472 31.074z"/>
    <path class="fil3" d="M126.547 29.876c3.849,1.766 9.944,5.901 12.056,1.296 2.113,-4.605 -4.996,-6.527 -8.845,-8.294l-3.211 6.998z"/>
    <path class="fil3" d="M94.457 99.817c3.849,1.767 9.943,5.901 12.056,1.297 2.113,-4.605 -4.996,-6.528 -8.846,-8.294l-3.21 6.997z"/>
    <path class="fil3" d="M70.388 152.273c3.85,1.766 9.944,5.9 12.057,1.296 2.113,-4.605 -4.996,-6.527 -8.846,-8.294l-3.211 6.998z"/>
    <path class="fil3" d="M78.411 134.788c3.85,1.766 9.944,5.9 12.057,1.296 2.112,-4.605 -4.997,-6.528 -8.846,-8.294l-3.211 6.998z"/>
    <path class="fil3" d="M46.32 204.728c3.85,1.767 9.945,5.901 12.057,1.297 2.113,-4.605 -4.996,-6.528 -8.846,-8.294l-3.211 6.997z"/>
    <path class="fil3" d="M102.479 82.332c3.85,1.766 9.944,5.901 12.057,1.297 2.113,-4.606 -4.996,-6.528 -8.847,-8.295l-3.21 6.998z"/>
    <path class="fil3" d="M62.366 169.758c3.849,1.766 9.944,5.901 12.056,1.296 2.113,-4.605 -4.996,-6.527 -8.846,-8.294l-3.21 6.998z"/>
    <path class="fil3" d="M54.343 187.243c3.85,1.766 9.944,5.901 12.057,1.297 2.113,-4.605 -4.996,-6.528 -8.846,-8.294l-3.211 6.997z"/>
    <path class="fil3" d="M118.524 47.361c3.85,1.766 9.945,5.901 12.057,1.297 2.113,-4.605 -4.996,-6.528 -8.846,-8.294l-3.211 6.997z"/>
    <path class="fil3" d="M110.502 64.847c3.849,1.766 9.943,5.901 12.056,1.296 2.113,-4.605 -4.996,-6.527 -8.846,-8.294l-3.21 6.998z"/>
    <path class="fil3" d="M86.433 117.302c3.851,1.767 9.947,5.897 12.057,1.297 2.112,-4.601 -4.996,-6.527 -8.846,-8.294l-3.211 6.997z"/>
   </g>
   <g>
    <path class="fil4" d="M308.961 256.897l-37.462 79.067 0.01 0.005c7.594,3.598 13.289,4.979 21.058,5.484 1.155,0.075 1.802,-0.034 2.92,-0.023 4.927,0.046 11.079,-0.444 15.652,-2.113 0.938,-0.342 1.425,-0.54 2.359,-0.778 2.86,-0.73 9.147,-3.786 11.808,-5.49 2.838,-1.817 6.236,-4.179 8.749,-6.679 3.968,-3.947 8.659,-9.199 11.355,-14.965l34.417 -72.639c4.818,-10.109 4.155,-18.478 0.681,-28.074 -0.648,-1.789 -1.649,-3.039 -2.263,-4.625 -1.683,2.406 -10.627,21.996 -12.697,26.365 -8.336,17.593 -11.85,35.089 -31.252,34.763 -5.692,-0.095 -19.314,-6.855 -25.335,-10.298z"/>
    <path class="fil5" d="M271.499 335.964l37.462 -79.067c-6.48,-2.417 -19.91,-8.625 -23.967,-13.276 -12.429,-14.247 -0.286,-30.093 7.387,-46.289 4.06,-8.567 8.061,-17.706 12.399,-26.075 -10.849,1.294 -21.406,8.471 -26.171,18.68 -7.041,15.083 -34.56,71.315 -36.946,79.406 -1.253,4.252 -1.69,7.698 -2.166,11.905 -1.137,10.06 1.984,21.686 6.584,30.461 5.264,10.04 13.771,18.735 25.414,24.253l0.004 0.002z"/>
    <path class="fil6" d="M304.78 171.257c-4.338,8.369 -8.339,17.508 -12.399,26.075 -7.673,16.196 -19.816,32.042 -7.387,46.289 4.057,4.651 17.487,10.859 23.967,13.276l10.652 -22.433c-6.561,-4.441 -2.174,-9.839 1.12,-16.79 3.293,-6.95 4.692,-13.764 12.284,-11.499l10.67 -22.528 3.241 1.536c2.158,-4.556 7.598,-8.422 11.74,-10.604 11.366,-5.989 21.871,-1.103 33.154,4.243 5.707,2.704 12.716,5.066 16.299,10.001 8.63,11.884 -3.99,17.542 0.411,31.492 1.356,4.301 4.577,9.552 9.584,12.398 2.133,1.213 7.528,4.08 9.327,4.034 2.687,-0.068 4.432,-4.079 1.094,-5.996 -5.526,-3.175 -10.199,-3.77 -13.337,-11.059 -2.927,-6.799 0.674,-11.689 1.816,-16.467 1.987,-8.313 -0.61,-15.9 -6.465,-21.422 -1.102,-1.038 -3.545,-2.511 -6.564,-4.125l-21.069 -9.983c-13.881,-5.902 -33.399,-0.158 -41.985,14.647 -12.016,-5.693 -23.567,-13.363 -36.153,-11.085z"/>
    <path class="fil5" d="M333.017 206.175c6.829,4.289 2.311,9.866 -0.997,16.848 -3.308,6.98 -4.763,14.009 -12.407,11.441l-10.652 22.433c6.021,3.443 19.643,10.203 25.335,10.298 19.402,0.326 22.916,-17.17 31.252,-34.763 2.07,-4.369 11.014,-23.959 12.697,-26.365 -2.512,-3.299 -1.777,-2.78 -4.993,-6.26 -5.862,-6.342 -17.823,-10.596 -26.324,-14.624l-3.241 -1.536 -10.67 22.528z"/>
    <path class="fil7" d="M319.613 234.464c7.644,2.568 9.099,-4.461 12.407,-11.441 3.308,-6.982 7.826,-12.559 0.997,-16.848l-13.404 28.289z"/>
    <path class="fil4" d="M319.613 234.464l13.404 -28.289c-7.592,-2.265 -8.991,4.549 -12.284,11.499 -3.294,6.951 -7.681,12.349 -1.12,16.79z"/>
   </g>
   <g>
    <path class="fil8" d="M154.637 96.081l9.442 4.588c3.63,2.149 4.027,-1.318 7.248,-8.283l17.61 -38.084 -12.182 -6.054 -22.118 47.833z"/>
    <path class="fil5" d="M145.339 91.472l9.298 4.609 22.118 -47.833 -12.099 -5.942 -20.374 44.059c-0.522,1.111 -1.208,2.14 -1.065,3.09 0.157,1.045 0.823,1.376 2.122,2.017z"/>
    <path class="fil6" d="M164.656 42.306l12.099 5.942 12.182 6.054c6.979,3.448 6.026,3.095 2.847,9.969l-11.97 25.886c-0.747,1.616 -2.717,4.914 -2.513,6.311 0.279,1.919 3.029,2.854 4.26,0.675 1.801,-3.183 9.698,-20.985 11.968,-25.895 3.25,-7.029 7.814,-12.619 3.327,-17.512 -1.296,-1.413 -4.052,-2.416 -6.078,-3.416l-12.208 -5.997 -12.072 -6c-2.88,-1.143 -4.511,2.386 -1.842,3.983z"/>
    <path class="fil9" d="M143.599 119.952l9.384 4.713c1.053,-0.364 3.242,0.143 4.558,-2.399 1.086,-2.095 0.508,-4.174 -0.967,-5.368l0.23 -0.497c4.147,0.992 6.805,-4.756 3.453,-7.468l0.231 -0.498c2.938,0.703 5.523,-2.08 4.843,-5.204 -0.292,-1.348 -0.419,-0.9 -1.164,-2.369 -0.02,-0.04 -0.064,-0.127 -0.088,-0.193l-9.442 -4.588 -11.038 23.871z"/>
    <path class="fil1" d="M134.289 115.368l9.31 4.584 11.038 -23.871 -9.298 -4.609 -1.182 0.16c-0.493,0.075 -0.882,0.175 -1.319,0.352 -3.073,1.244 -3.322,5.38 -1.067,7.204l-0.231 0.498c-4.118,-0.985 -6.781,4.775 -3.452,7.468l-0.231 0.498c-1.773,-0.425 -7.358,1.123 -3.665,7.539 0.021,0.036 0.07,0.116 0.097,0.177z"/>
    <path class="fil8" d="M131.829 145.406l2.096 0.987c1.225,-0.54 2.141,-1.076 3.295,-1.751l7.847 -5.09c0.634,-0.49 0.92,-0.859 1.563,-1.372 2.654,-2.119 6.692,-6.374 8.144,-9.955 0.752,-1.855 0.232,-2.745 -1.791,-3.56l-9.384 -4.713 -11.77 25.454z"/>
    <path class="fil5" d="M129.874 144.404l1.955 1.002 11.77 -25.454 -9.31 -4.584c-3.307,-1.636 -4.101,0.124 -5.368,5.171 -0.696,2.772 -0.787,5.822 -0.904,8.29 -0.132,2.795 0.537,8.733 1.002,11.64 0.145,0.907 0.538,3.302 0.855,3.935z"/>
    <path class="fil9" d="M181.351 38.309l8.143 4.037c1.075,-2.324 4.176,-7.814 4.142,-9.801 -0.035,-2.057 -0.969,-3.144 -2.527,-4.079l-4.239 -2.094 -5.519 11.937z"/>
    <path class="fil1" d="M173.307 34.349l8.044 3.96 5.519 -11.937 -4.048 -2c-1.717,-0.696 -3.127,-0.786 -4.74,0.486 -1.488,1.172 -3.719,7.206 -4.775,9.491z"/>
    <path class="fil8" d="M178.57 44.323l12.208 5.997c0.669,-1.447 1.984,-3.401 2.074,-4.902 0.101,-1.696 -1.524,-2.165 -3.358,-3.072l-8.143 -4.037 -2.781 6.014z"/>
    <path class="fil5" d="M166.498 38.323l12.072 6 2.781 -6.014 -8.044 -3.96c-1.826,-0.902 -3.231,-1.992 -4.442,-0.826 -0.744,0.717 -1.845,3.67 -2.367,4.8z"/>
    <path class="fil6" d="M133.925 146.393l-2.096 -0.987 -1.955 -1.002c-1.931,4.176 -4.553,7.841 -2.111,9.325l0.463 0.229c2.652,1.032 3.767,-3.385 5.699,-7.565z"/>
   </g>
  </g>
 </g>
</svg>
